<mxfile host="app.diagrams.net" modified="2022-11-07T18:53:24.490Z" agent="5.0 (Windows)" etag="N4173ngyerEVNJnp1OHU" version="20.2.3" type="github">
  <diagram id="AeE6Nd4IQf6WGozorrTW" name="Strona-1">
    <mxGraphModel dx="2310" dy="707" grid="1" gridSize="10" guides="1" tooltips="1" connect="1" arrows="1" fold="1" page="1" pageScale="1" pageWidth="827" pageHeight="1169" math="0" shadow="0">
      <root>
        <mxCell id="0" />
        <mxCell id="1" parent="0" />
        <mxCell id="wFr8V85VXoPT2cil2DmJ-18" value="Question" style="swimlane;whiteSpace=wrap;html=1;" parent="1" vertex="1">
          <mxGeometry x="-110" y="300" width="220" height="160" as="geometry" />
        </mxCell>
        <mxCell id="wFr8V85VXoPT2cil2DmJ-19" value="&lt;div&gt;&lt;br&gt;&lt;/div&gt;&lt;div&gt;abstract class&lt;br&gt;&lt;/div&gt;&lt;div&gt;&lt;br&gt;&lt;/div&gt;&lt;div&gt;+ textContent : String&lt;/div&gt;&lt;div&gt;+ reward : Integer&lt;/div&gt;&lt;div&gt;+ correctAnswer: String&lt;/div&gt;&lt;div&gt;&lt;br&gt;&lt;/div&gt;&lt;div&gt;&lt;br&gt;&lt;/div&gt;&lt;div&gt;+ isAnswerCorrect (String) : boolean&lt;/div&gt;&lt;div&gt;+ givePoints (Integer) : Integer&lt;br&gt;&lt;/div&gt;" style="text;html=1;align=left;verticalAlign=middle;resizable=0;points=[];autosize=1;strokeColor=none;fillColor=none;" parent="wFr8V85VXoPT2cil2DmJ-18" vertex="1">
          <mxGeometry x="5" y="-5" width="210" height="160" as="geometry" />
        </mxCell>
        <mxCell id="wFr8V85VXoPT2cil2DmJ-20" value="Player" style="swimlane;whiteSpace=wrap;html=1;" parent="1" vertex="1">
          <mxGeometry x="800" y="280" width="220" height="200" as="geometry" />
        </mxCell>
        <mxCell id="wFr8V85VXoPT2cil2DmJ-21" value="+ Id: Integer&lt;br&gt;+ name: String&lt;br&gt;&lt;div&gt;+ numberOfPoints: Integer&lt;/div&gt;&lt;div&gt;&lt;br&gt;&lt;/div&gt;&lt;div&gt;+ chooseQuestion()&lt;br&gt;&lt;/div&gt;" style="text;html=1;align=left;verticalAlign=middle;resizable=0;points=[];autosize=1;strokeColor=none;fillColor=none;" parent="wFr8V85VXoPT2cil2DmJ-20" vertex="1">
          <mxGeometry x="10" y="25" width="160" height="90" as="geometry" />
        </mxCell>
        <mxCell id="Sc2ZBp0-1doToBb72kau-2" value="GeographyQuestion" style="swimlane;whiteSpace=wrap;html=1;" vertex="1" parent="1">
          <mxGeometry x="170" y="160" width="200" height="100" as="geometry" />
        </mxCell>
        <mxCell id="Sc2ZBp0-1doToBb72kau-3" value="&lt;div&gt;class&lt;br&gt;&lt;/div&gt;&lt;div&gt;&lt;br&gt;&lt;/div&gt;&lt;div&gt;&amp;nbsp;&lt;br&gt;&lt;/div&gt;" style="text;html=1;align=left;verticalAlign=middle;resizable=0;points=[];autosize=1;strokeColor=none;fillColor=none;" vertex="1" parent="Sc2ZBp0-1doToBb72kau-2">
          <mxGeometry x="10" y="35" width="50" height="60" as="geometry" />
        </mxCell>
        <mxCell id="Sc2ZBp0-1doToBb72kau-4" value="FamousQuestion" style="swimlane;whiteSpace=wrap;html=1;" vertex="1" parent="1">
          <mxGeometry x="170" y="280" width="200" height="100" as="geometry" />
        </mxCell>
        <mxCell id="Sc2ZBp0-1doToBb72kau-5" value="&lt;div&gt;class&lt;br&gt;&lt;/div&gt;&lt;div&gt;&lt;br&gt;&lt;/div&gt;&lt;div&gt;&amp;nbsp;&lt;br&gt;&lt;/div&gt;" style="text;html=1;align=left;verticalAlign=middle;resizable=0;points=[];autosize=1;strokeColor=none;fillColor=none;" vertex="1" parent="Sc2ZBp0-1doToBb72kau-4">
          <mxGeometry x="10" y="35" width="50" height="60" as="geometry" />
        </mxCell>
        <mxCell id="Sc2ZBp0-1doToBb72kau-6" value="CarsQuestion" style="swimlane;whiteSpace=wrap;html=1;" vertex="1" parent="1">
          <mxGeometry x="170" y="410" width="200" height="100" as="geometry" />
        </mxCell>
        <mxCell id="Sc2ZBp0-1doToBb72kau-7" value="&lt;div&gt;class&lt;br&gt;&lt;/div&gt;&lt;div&gt;&lt;br&gt;&lt;/div&gt;&lt;div&gt;&amp;nbsp;&lt;br&gt;&lt;/div&gt;" style="text;html=1;align=left;verticalAlign=middle;resizable=0;points=[];autosize=1;strokeColor=none;fillColor=none;" vertex="1" parent="Sc2ZBp0-1doToBb72kau-6">
          <mxGeometry x="10" y="35" width="50" height="60" as="geometry" />
        </mxCell>
        <mxCell id="Sc2ZBp0-1doToBb72kau-8" value="SportsQuestion" style="swimlane;whiteSpace=wrap;html=1;startSize=23;" vertex="1" parent="1">
          <mxGeometry x="170" y="550" width="200" height="100" as="geometry" />
        </mxCell>
        <mxCell id="Sc2ZBp0-1doToBb72kau-9" value="&lt;div&gt;class&lt;br&gt;&lt;/div&gt;&lt;div&gt;&lt;br&gt;&lt;/div&gt;&lt;div&gt;&amp;nbsp;&lt;br&gt;&lt;/div&gt;" style="text;html=1;align=left;verticalAlign=middle;resizable=0;points=[];autosize=1;strokeColor=none;fillColor=none;" vertex="1" parent="Sc2ZBp0-1doToBb72kau-8">
          <mxGeometry x="10" y="35" width="50" height="60" as="geometry" />
        </mxCell>
        <mxCell id="Sc2ZBp0-1doToBb72kau-10" value="QuestionPool" style="swimlane;whiteSpace=wrap;html=1;" vertex="1" parent="1">
          <mxGeometry x="500" y="280" width="230" height="160" as="geometry" />
        </mxCell>
        <mxCell id="Sc2ZBp0-1doToBb72kau-11" value="questions: HashSet&amp;lt;questions&amp;gt;??" style="text;html=1;align=left;verticalAlign=middle;resizable=0;points=[];autosize=1;strokeColor=none;fillColor=none;" vertex="1" parent="Sc2ZBp0-1doToBb72kau-10">
          <mxGeometry x="10" y="70" width="200" height="30" as="geometry" />
        </mxCell>
        <mxCell id="Sc2ZBp0-1doToBb72kau-13" value="" style="endArrow=block;dashed=1;endFill=0;endSize=12;html=1;rounded=0;entryX=1;entryY=0.5;entryDx=0;entryDy=0;exitX=0;exitY=0.5;exitDx=0;exitDy=0;startArrow=none;" edge="1" parent="1" source="Sc2ZBp0-1doToBb72kau-15" target="Sc2ZBp0-1doToBb72kau-2">
          <mxGeometry width="160" relative="1" as="geometry">
            <mxPoint x="490" y="360" as="sourcePoint" />
            <mxPoint x="630" y="350" as="targetPoint" />
          </mxGeometry>
        </mxCell>
        <mxCell id="Sc2ZBp0-1doToBb72kau-15" value="has many" style="text;html=1;align=center;verticalAlign=middle;resizable=0;points=[];autosize=1;strokeColor=none;fillColor=none;" vertex="1" parent="1">
          <mxGeometry x="410" y="270" width="70" height="30" as="geometry" />
        </mxCell>
        <mxCell id="Sc2ZBp0-1doToBb72kau-16" value="" style="endArrow=none;dashed=1;endFill=0;endSize=12;html=1;rounded=0;entryX=1;entryY=0.5;entryDx=0;entryDy=0;exitX=0;exitY=0.5;exitDx=0;exitDy=0;" edge="1" parent="1" source="Sc2ZBp0-1doToBb72kau-10" target="Sc2ZBp0-1doToBb72kau-15">
          <mxGeometry width="160" relative="1" as="geometry">
            <mxPoint x="500" y="360" as="sourcePoint" />
            <mxPoint x="370" y="210" as="targetPoint" />
          </mxGeometry>
        </mxCell>
        <mxCell id="Sc2ZBp0-1doToBb72kau-20" value="" style="endArrow=block;dashed=1;endFill=0;endSize=12;html=1;rounded=0;entryX=1;entryY=0.5;entryDx=0;entryDy=0;startArrow=none;" edge="1" parent="1" target="Sc2ZBp0-1doToBb72kau-4">
          <mxGeometry width="160" relative="1" as="geometry">
            <mxPoint x="500" y="360" as="sourcePoint" />
            <mxPoint x="380" y="220" as="targetPoint" />
          </mxGeometry>
        </mxCell>
        <mxCell id="Sc2ZBp0-1doToBb72kau-21" value="" style="endArrow=block;dashed=1;endFill=0;endSize=12;html=1;rounded=0;entryX=1;entryY=0.5;entryDx=0;entryDy=0;startArrow=none;" edge="1" parent="1" source="Sc2ZBp0-1doToBb72kau-24" target="Sc2ZBp0-1doToBb72kau-6">
          <mxGeometry width="160" relative="1" as="geometry">
            <mxPoint x="500" y="360" as="sourcePoint" />
            <mxPoint x="380" y="220" as="targetPoint" />
          </mxGeometry>
        </mxCell>
        <mxCell id="Sc2ZBp0-1doToBb72kau-22" value="" style="endArrow=block;dashed=1;endFill=0;endSize=12;html=1;rounded=0;startArrow=none;" edge="1" parent="1" source="Sc2ZBp0-1doToBb72kau-26">
          <mxGeometry width="160" relative="1" as="geometry">
            <mxPoint x="500" y="360" as="sourcePoint" />
            <mxPoint x="370" y="610" as="targetPoint" />
          </mxGeometry>
        </mxCell>
        <mxCell id="Sc2ZBp0-1doToBb72kau-23" value="has many" style="text;html=1;align=center;verticalAlign=middle;resizable=0;points=[];autosize=1;strokeColor=none;fillColor=none;" vertex="1" parent="1">
          <mxGeometry x="400" y="330" width="70" height="30" as="geometry" />
        </mxCell>
        <mxCell id="Sc2ZBp0-1doToBb72kau-24" value="has many" style="text;html=1;align=center;verticalAlign=middle;resizable=0;points=[];autosize=1;strokeColor=none;fillColor=none;" vertex="1" parent="1">
          <mxGeometry x="390" y="390" width="70" height="30" as="geometry" />
        </mxCell>
        <mxCell id="Sc2ZBp0-1doToBb72kau-25" value="" style="endArrow=none;dashed=1;endFill=0;endSize=12;html=1;rounded=0;entryX=1;entryY=0.5;entryDx=0;entryDy=0;startArrow=none;" edge="1" parent="1" target="Sc2ZBp0-1doToBb72kau-24">
          <mxGeometry width="160" relative="1" as="geometry">
            <mxPoint x="500" y="360" as="sourcePoint" />
            <mxPoint x="370" y="460" as="targetPoint" />
          </mxGeometry>
        </mxCell>
        <mxCell id="Sc2ZBp0-1doToBb72kau-26" value="has many" style="text;html=1;align=center;verticalAlign=middle;resizable=0;points=[];autosize=1;strokeColor=none;fillColor=none;" vertex="1" parent="1">
          <mxGeometry x="400" y="475" width="70" height="30" as="geometry" />
        </mxCell>
        <mxCell id="Sc2ZBp0-1doToBb72kau-27" value="" style="endArrow=none;dashed=1;endFill=0;endSize=12;html=1;rounded=0;startArrow=none;" edge="1" parent="1" target="Sc2ZBp0-1doToBb72kau-26">
          <mxGeometry width="160" relative="1" as="geometry">
            <mxPoint x="500" y="360" as="sourcePoint" />
            <mxPoint x="370" y="610" as="targetPoint" />
          </mxGeometry>
        </mxCell>
        <mxCell id="Sc2ZBp0-1doToBb72kau-28" value="Extends" style="endArrow=block;endSize=16;endFill=0;html=1;rounded=0;exitX=0;exitY=0.5;exitDx=0;exitDy=0;" edge="1" parent="1" source="Sc2ZBp0-1doToBb72kau-2">
          <mxGeometry width="160" relative="1" as="geometry">
            <mxPoint x="70" y="420" as="sourcePoint" />
            <mxPoint x="110" y="390" as="targetPoint" />
          </mxGeometry>
        </mxCell>
        <mxCell id="Sc2ZBp0-1doToBb72kau-29" value="Extends" style="endArrow=block;endSize=16;endFill=0;html=1;rounded=0;" edge="1" parent="1">
          <mxGeometry width="160" relative="1" as="geometry">
            <mxPoint x="170" y="340" as="sourcePoint" />
            <mxPoint x="110" y="390" as="targetPoint" />
          </mxGeometry>
        </mxCell>
        <mxCell id="Sc2ZBp0-1doToBb72kau-32" value="Extends" style="endArrow=block;endSize=16;endFill=0;html=1;rounded=0;exitX=0;exitY=0.5;exitDx=0;exitDy=0;" edge="1" parent="1" source="Sc2ZBp0-1doToBb72kau-6">
          <mxGeometry width="160" relative="1" as="geometry">
            <mxPoint x="170" y="340" as="sourcePoint" />
            <mxPoint x="110" y="390" as="targetPoint" />
          </mxGeometry>
        </mxCell>
        <mxCell id="Sc2ZBp0-1doToBb72kau-33" value="Extends" style="endArrow=block;endSize=16;endFill=0;html=1;rounded=0;exitX=0;exitY=0.5;exitDx=0;exitDy=0;" edge="1" parent="1" source="Sc2ZBp0-1doToBb72kau-8">
          <mxGeometry width="160" relative="1" as="geometry">
            <mxPoint x="170" y="340" as="sourcePoint" />
            <mxPoint x="110" y="390" as="targetPoint" />
          </mxGeometry>
        </mxCell>
        <mxCell id="Sc2ZBp0-1doToBb72kau-35" value="Game" style="swimlane;whiteSpace=wrap;html=1;" vertex="1" parent="1">
          <mxGeometry x="610" y="580" width="220" height="200" as="geometry" />
        </mxCell>
        <mxCell id="Sc2ZBp0-1doToBb72kau-36" value="&lt;div&gt;+ QuestionPool questionPool&lt;/div&gt;&lt;div&gt;+ List&amp;lt;Player&amp;gt; players&lt;/div&gt;&lt;div&gt;&lt;br&gt;&lt;/div&gt;&lt;div&gt;&lt;br&gt;&lt;/div&gt;&lt;div&gt;+isGameOver();&lt;br&gt;&lt;/div&gt;" style="text;html=1;align=left;verticalAlign=middle;resizable=0;points=[];autosize=1;strokeColor=none;fillColor=none;" vertex="1" parent="Sc2ZBp0-1doToBb72kau-35">
          <mxGeometry x="10" y="25" width="170" height="90" as="geometry" />
        </mxCell>
        <mxCell id="Sc2ZBp0-1doToBb72kau-37" value="" style="endArrow=none;dashed=1;endFill=0;endSize=12;html=1;rounded=0;startArrow=none;exitX=0.532;exitY=-0.015;exitDx=0;exitDy=0;exitPerimeter=0;" edge="1" parent="1" source="Sc2ZBp0-1doToBb72kau-35">
          <mxGeometry width="160" relative="1" as="geometry">
            <mxPoint x="577.5" y="570" as="sourcePoint" />
            <mxPoint x="900" y="480" as="targetPoint" />
          </mxGeometry>
        </mxCell>
        <mxCell id="Sc2ZBp0-1doToBb72kau-38" value="has many" style="text;html=1;align=center;verticalAlign=middle;resizable=0;points=[];autosize=1;strokeColor=none;fillColor=none;" vertex="1" parent="1">
          <mxGeometry x="770" y="520" width="70" height="30" as="geometry" />
        </mxCell>
        <mxCell id="Sc2ZBp0-1doToBb72kau-39" value="" style="endArrow=none;dashed=1;endFill=0;endSize=12;html=1;rounded=0;startArrow=none;exitX=0.532;exitY=-0.015;exitDx=0;exitDy=0;exitPerimeter=0;entryX=0.5;entryY=1;entryDx=0;entryDy=0;" edge="1" parent="1" source="Sc2ZBp0-1doToBb72kau-35" target="Sc2ZBp0-1doToBb72kau-10">
          <mxGeometry width="160" relative="1" as="geometry">
            <mxPoint x="577.5" y="570" as="sourcePoint" />
            <mxPoint x="900" y="480" as="targetPoint" />
          </mxGeometry>
        </mxCell>
        <mxCell id="Sc2ZBp0-1doToBb72kau-40" value="has" style="text;html=1;align=center;verticalAlign=middle;resizable=0;points=[];autosize=1;strokeColor=none;fillColor=none;" vertex="1" parent="1">
          <mxGeometry x="665" y="500" width="40" height="30" as="geometry" />
        </mxCell>
      </root>
    </mxGraphModel>
  </diagram>
</mxfile>
